HIERARCHY
ROOT root
{
	OFFSET 0.000000 0.000000 0.000000
	CHANNELS 6 Xposition Yposition Zposition Zrotation Yrotation Xrotation
	JOINT lhip
	{
		OFFSET 0.058581 -0.082280 -0.017664
		CHANNELS 3 Zrotation Yrotation Xrotation
		JOINT lknee
		{
			OFFSET 0.043451 -0.386469 0.008037
			CHANNELS 3 Zrotation Yrotation Xrotation
			JOINT lankle
			{
				OFFSET -0.014790 -0.426874 -0.037428
				CHANNELS 3 Zrotation Yrotation Xrotation
				JOINT ltoe
				{
					OFFSET 0.041054 -0.060286 0.122042
					CHANNELS 3 Zrotation Yrotation Xrotation
					End Site
					{
						OFFSET 0.000000 0.000000 0.000000
					}
				}
			}
		}
	}
	JOINT rhip
	{
		OFFSET -0.060310 -0.090513 -0.013543
		CHANNELS 3 Zrotation Yrotation Xrotation
		JOINT rknee
		{
			OFFSET -0.043257 -0.383688 -0.004843
			CHANNELS 3 Zrotation Yrotation Xrotation
			JOINT rankle
			{
				OFFSET 0.019056 -0.420046 -0.034562
				CHANNELS 3 Zrotation Yrotation Xrotation
				JOINT rtoe
				{
					OFFSET -0.034840 -0.062106 0.130323
					CHANNELS 3 Zrotation Yrotation Xrotation
					End Site
					{
						OFFSET 0.000000 0.000000 0.000000
					}
				}
			}
		}
	}
	JOINT lowerback
	{
		OFFSET 0.004439 0.124404 -0.038385
		CHANNELS 3 Zrotation Yrotation Xrotation
		JOINT upperback
		{
			OFFSET 0.004488 0.137956 0.026820
			CHANNELS 3 Zrotation Yrotation Xrotation
			JOINT chest
			{
				OFFSET -0.002265 0.056032 0.002855
				CHANNELS 3 Zrotation Yrotation Xrotation
				JOINT lowerneck
				{
					OFFSET -0.013390 0.211636 -0.033468
					CHANNELS 3 Zrotation Yrotation Xrotation
					JOINT upperneck
					{
						OFFSET 0.010113 0.088937 0.050410
						CHANNELS 3 Zrotation Yrotation Xrotation
						End Site
						{
							OFFSET 0.000000 0.000000 0.000000
						}
					}
				}
				JOINT lclavicle
				{
					OFFSET 0.071702 0.114000 -0.018898
					CHANNELS 3 Zrotation Yrotation Xrotation
					JOINT lshoulder
					{
						OFFSET 0.122921 0.045205 -0.019046
						CHANNELS 3 Zrotation Yrotation Xrotation
						JOINT lelbow
						{
							OFFSET 0.255332 -0.015649 -0.022946
							CHANNELS 3 Zrotation Yrotation Xrotation
							JOINT lwrist
							{
								OFFSET 0.265709 0.012698 -0.007375
								CHANNELS 3 Zrotation Yrotation Xrotation
								End Site
								{
									OFFSET 0.000000 0.000000 0.000000
								}
							}
						}
					}
				}
				JOINT rclavicle
				{
					OFFSET -0.082954 0.112472 -0.023707
					CHANNELS 3 Zrotation Yrotation Xrotation
					JOINT rshoulder
					{
						OFFSET -0.113228 0.046853 -0.008472
						CHANNELS 3 Zrotation Yrotation Xrotation
						JOINT relbow
						{
							OFFSET -0.260127 -0.014369 -0.031269
							CHANNELS 3 Zrotation Yrotation Xrotation
							JOINT rwrist
							{
								OFFSET -0.269108 0.006794 -0.006027
								CHANNELS 3 Zrotation Yrotation Xrotation
								End Site
								{
									OFFSET 0.000000 0.000000 0.000000
								}
							}
						}
					}
				}
			}
		}
	}
}
MOTION
Frames: 7
Frame Time: 0.033333
0.290346 -0.226909 0.956855 178.520670 -0.336981 92.848310 5.222414 -2.155286 -22.602589 -7.880253 -5.725899 22.706238 3.939397 5.241213 -9.247546 0.000000 -0.000000 0.000000 -4.931572 -3.963590 -24.434913 1.011551 -2.819347 25.757588 0.903204 -4.428469 -10.370987 0.000000 -0.000000 0.000000 2.297164 2.119071 22.940469 1.282479 -2.860944 5.094686 0.847814 -0.821606 2.490643 0.550340 7.401169 25.620064 4.686458 6.040906 12.465217 -13.564042 -16.455119 3.052577 -73.216446 -21.584796 27.566875 -10.098732 -51.013034 21.055327 0.686548 19.753825 -45.144715 6.587169 16.840662 1.447021 79.484175 18.368002 28.072290 -9.602170 43.653844 -7.682410 2.153734 -4.340240 -59.895464 
0.290556 -0.227611 0.956655 178.581673 -0.341928 92.945290 5.267224 -2.237126 -22.756583 -7.895744 -5.676984 22.704938 4.101703 5.220638 -9.273767 0.000000 -0.000000 0.000000 -4.968925 -3.919886 -24.535365 1.062356 -2.875609 25.701592 0.895965 -4.451202 -10.285095 0.000000 -0.000000 0.000000 2.362326 2.198455 22.834984 1.278885 -2.929841 5.112878 0.784280 -0.724046 2.540618 0.465364 7.447171 25.715866 4.842568 6.118315 12.423755 -13.615769 -16.727047 3.294486 -73.074938 -21.764374 27.450047 -10.023696 -51.057427 20.789622 0.702626 19.860018 -45.279861 6.577268 16.979803 1.820990 79.381933 18.716205 27.984765 -9.706391 43.531444 -7.638233 2.137482 -4.519177 -59.861318 
0.290953 -0.228178 0.956619 178.570540 -0.326993 92.985679 5.341291 -2.236699 -22.876162 -7.939154 -5.603844 22.819327 4.177984 5.135451 -9.345587 0.000000 -0.000000 0.000000 -4.934272 -3.962647 -24.527298 1.108317 -2.876534 25.547883 0.819807 -4.442121 -10.270467 0.000000 -0.000000 0.000000 2.440642 2.290446 22.809034 1.220961 -2.827046 5.127126 0.771195 -0.738478 2.559235 0.392856 7.393465 25.764256 4.869104 6.166181 12.362321 -13.673585 -16.869167 3.417344 -73.095904 -21.911726 27.404037 -9.742992 -50.777638 20.491437 0.054016 19.410573 -45.225745 6.478880 17.182987 1.790557 79.234528 18.807874 27.944307 -9.446655 43.282672 -7.569098 2.333191 -4.275973 -59.734265 
0.291304 -0.228848 0.956531 178.579469 -0.307316 92.961762 5.360384 -2.291991 -23.002166 -7.939396 -5.616357 23.071956 4.172366 5.200582 -9.481771 0.000000 -0.000000 0.000000 -4.889896 -4.019914 -24.479880 1.182607 -2.805642 25.460273 0.830539 -4.413336 -10.256698 0.000000 -0.000000 0.000000 2.516370 2.328592 22.937014 1.119745 -2.776474 5.136180 0.741300 -0.644290 2.510056 0.441137 7.359176 25.754646 5.024033 6.443282 12.377581 -13.702654 -16.996857 3.406153 -73.083297 -21.897453 27.391140 -9.665147 -50.825232 20.182993 0.299141 19.708340 -45.321690 6.392365 17.485145 1.847413 79.043085 18.882087 27.886303 -9.246210 43.288776 -7.667456 2.223521 -4.286449 -59.884592 
0.291302 -0.229246 0.956441 178.569945 -0.293798 92.950363 5.324538 -2.343876 -23.103376 -7.862555 -5.627318 23.252577 4.144460 5.269051 -9.510624 0.000000 -0.000000 0.000000 -4.889475 -3.964440 -24.465353 1.202196 -2.809079 25.414414 0.854051 -4.445731 -10.238682 0.000000 -0.000000 0.000000 2.548461 2.276387 23.012032 1.080003 -2.717093 5.091016 0.714842 -0.510522 2.545557 0.493273 7.415928 25.696362 5.047290 6.555182 12.408643 -13.722714 -16.999952 3.395680 -73.097648 -21.962625 27.476322 -9.672665 -50.607729 20.274191 0.218637 19.013527 -45.590367 6.211169 17.472268 1.790148 78.906594 19.034039 27.906487 -8.680133 43.209342 -7.077519 2.318379 -3.973488 -60.458005 
0.291719 -0.229620 0.956225 178.456974 -0.260559 92.942921 5.409371 -2.338818 -23.159745 -7.907110 -5.605399 23.365790 4.161484 5.332186 -9.536313 0.000000 -0.000000 0.000000 -4.835237 -3.907621 -24.582935 1.228545 -2.844479 25.564827 0.850800 -4.458311 -10.259978 0.000000 -0.000000 0.000000 2.503849 2.295287 23.119242 0.993281 -2.590743 5.021580 0.775455 -0.433160 2.554292 0.580769 7.580251 25.749710 5.208833 7.054706 12.365142 -13.591517 -17.065740 3.371743 -73.137733 -21.908107 27.505606 -9.780073 -50.573041 20.255779 0.520363 19.030670 -45.632326 5.941825 17.745307 1.755900 78.795355 19.118763 28.033194 -8.279659 43.134138 -6.830439 2.304740 -3.761722 -60.742590 
0.291856 -0.229689 0.955965 178.376120 -0.279991 92.927552 5.401451 -2.299118 -23.222576 -7.983720 -5.641217 23.531688 4.227033 5.440641 -9.555337 0.000000 -0.000000 0.000000 -4.851485 -3.906197 -24.680190 1.261034 -2.744692 25.732209 0.832587 -4.495467 -10.311320 0.000000 -0.000000 0.000000 2.486494 2.341704 23.255450 0.888912 -2.482577 4.858490 0.825122 -0.404911 2.566020 0.738966 7.747901 25.755826 5.282503 7.574961 12.442408 -13.518512 -17.145669 3.412936 -73.171319 -21.805652 27.522640 -9.868700 -50.629953 20.499948 0.803745 19.226404 -45.844847 5.740892 17.897228 1.857830 78.637474 19.198271 28.085711 -7.771555 43.235941 -6.352016 1.867086 -4.025055 -61.042551 
